<?xml version="1.0" encoding="UTF-8"?>
<svg version="1.1" xmlns="http://www.w3.org/2000/svg" width="95" height="80">
<path d="M0 0 C31.35 0 62.7 0 95 0 C95 26.4 95 52.8 95 80 C63.65 80 32.3 80 0 80 C0 53.6 0 27.2 0 0 Z " fill="#010302" transform="translate(0,0)"/>
<path d="M0 0 C4.0829596 -0.14518182 8.16525641 -0.23403347 12.25 -0.3125 C13.40886719 -0.35439453 14.56773438 -0.39628906 15.76171875 -0.43945312 C24.33938775 -0.56340788 24.33938775 -0.56340788 27.734375 2.33203125 C29.89994312 6.89710232 30.24487238 10.83961577 30.3125 15.8125 C30.34150391 16.51181641 30.37050781 17.21113281 30.40039062 17.93164062 C30.46295736 23.07655147 29.45939295 25.97838398 26 30 C20.60129981 34.72205021 15.89067239 34.53197615 8.9140625 34.390625 C7.85714203 34.38496521 6.80022156 34.37930542 5.71127319 34.37347412 C2.3487137 34.35115467 -1.01276472 34.30096481 -4.375 34.25 C-6.66014082 34.22992935 -8.9452984 34.21167957 -11.23046875 34.1953125 C-16.82067888 34.15130447 -22.41026218 34.08443626 -28 34 C-28 31.36 -28 28.72 -28 26 C-26.35 26 -24.7 26 -23 26 C-23 27.65 -23 29.3 -23 31 C-22.67056396 30.18740723 -22.34112793 29.37481445 -22.00170898 28.53759766 C-20 26 -20 26 -16.41821289 25.38818359 C-14.93650351 25.36732766 -13.45428371 25.37240388 -11.97265625 25.3984375 C-11.18733017 25.39043121 -10.40200409 25.38242493 -9.59288025 25.37417603 C-7.0822299 25.3510792 -4.57319447 25.36057763 -2.0625 25.375 C0.44432197 25.37884814 2.95042713 25.3753989 5.45716858 25.35440063 C7.01640043 25.34231829 8.57583326 25.34497009 10.13499451 25.36410522 C13.33363271 25.34765349 15.63742397 25.19327179 18.4855957 23.67504883 C20.85516927 21.05411634 20.38620909 18.75177945 20.25 15.3125 C20.1675 13.229375 20.085 11.14625 20 9 C13.4 8.67 6.8 8.34 0 8 C0 5.36 0 2.72 0 0 Z " fill="#46E9C2" transform="translate(44,31)"/>
<path d="M0 0 C0.96084503 0.00007553 1.92169006 0.00015106 2.91165161 0.00022888 C3.95127045 0.00539017 4.99088928 0.01055145 6.06201172 0.01586914 C7.12459198 0.01728409 8.18717224 0.01869904 9.2819519 0.02015686 C12.68522931 0.02576705 16.0884416 0.0383213 19.49169922 0.05102539 C21.79508369 0.05603908 24.09846918 0.06060221 26.40185547 0.06469727 C32.05682571 0.0757398 37.71175781 0.09248788 43.36669922 0.11352539 C43.36669922 2.75352539 43.36669922 5.39352539 43.36669922 8.11352539 C41.71669922 8.11352539 40.06669922 8.11352539 38.36669922 8.11352539 C38.69669922 6.13352539 39.02669922 4.15352539 39.36669922 2.11352539 C38.70669922 2.11352539 38.04669922 2.11352539 37.36669922 2.11352539 C36.70669922 4.09352539 36.04669922 6.07352539 35.36669922 8.11352539 C34.26156982 8.12810791 33.15644043 8.14269043 32.01782227 8.15771484 C27.91934783 8.21566805 23.82142455 8.29290058 19.72338867 8.37597656 C17.94939109 8.40924003 16.17528732 8.43726757 14.40112305 8.45996094 C11.85142746 8.49348141 9.3027063 8.54579404 6.75341797 8.60180664 C5.95957199 8.60819656 5.16572601 8.61458649 4.3478241 8.62117004 C0.12007544 8.70864792 0.12007544 8.70864792 -3.63696289 10.45166016 C-5.25301882 13.14719868 -4.95186608 15.64623059 -4.88330078 18.73852539 C-4.86783203 19.90641602 -4.85236328 21.07430664 -4.83642578 22.27758789 C-4.95153631 25.01355072 -4.95153631 25.01355072 -3.63330078 26.11352539 C-2.22002131 26.26973094 -0.79975488 26.36408712 0.62060547 26.42993164 C1.90161133 26.49277344 1.90161133 26.49277344 3.20849609 26.55688477 C4.10632813 26.59620117 5.00416016 26.63551758 5.92919922 26.67602539 C7.28174805 26.74080078 7.28174805 26.74080078 8.66162109 26.80688477 C10.89648407 26.91330681 13.1314623 27.01532527 15.36669922 27.11352539 C15.36669922 29.42352539 15.36669922 31.73352539 15.36669922 34.11352539 C11.30474352 34.28808878 7.24375335 34.39446959 3.17919922 34.48852539 C2.02871094 34.53879883 0.87822266 34.58907227 -0.30712891 34.64086914 C-8.43915582 34.7822957 -8.43915582 34.7822957 -11.53222656 33.05004883 C-14.69707332 29.75103151 -15.23480445 26.18692525 -15.21923828 21.83618164 C-15.19087891 21.10270508 -15.16251953 20.36922852 -15.13330078 19.61352539 C-15.13587891 18.88004883 -15.13845703 18.14657227 -15.14111328 17.39086914 C-15.05558208 12.60967508 -14.21651038 9.2578113 -11.63330078 5.11352539 C-7.66416569 1.53162299 -5.29831409 -0.01386993 0 0 Z " fill="#47ECC3" transform="translate(40.63330078125,13.886474609375)"/>
<path d="M0 0 C0 0.66 0 1.32 0 2 C-12.33767475 2.59950448 -24.64445007 3.19272088 -37 3 C-37 3.66 -37 4.32 -37 5 C-37.66 5 -38.32 5 -39 5 C-39 5.66 -39 6.32 -39 7 C-16.725 6.505 -16.725 6.505 6 6 C1.5 9.375 1.5 9.375 -2.86035156 9.34057617 C-3.82104553 9.34034958 -4.7817395 9.34012299 -5.77154541 9.33988953 C-6.80084167 9.32440567 -7.83013794 9.30892181 -8.890625 9.29296875 C-10.48025055 9.28660149 -10.48025055 9.28660149 -12.10198975 9.28010559 C-15.48491887 9.2633203 -18.86725109 9.22566755 -22.25 9.1875 C-24.54426223 9.17245301 -26.8385338 9.15876463 -29.1328125 9.14648438 C-34.7554118 9.11341728 -40.37766325 9.06321903 -46 9 C-46 6.36 -46 3.72 -46 1 C-44.35 1 -42.7 1 -41 1 C-41 2.65 -41 4.3 -41 6 C-40.67201416 5.18958252 -40.34402832 4.37916504 -40.00610352 3.54418945 C-38 1 -38 1 -34.38647461 0.34057617 C-32.89224535 0.29947167 -31.39711856 0.28529154 -29.90234375 0.29296875 C-29.11227432 0.27784744 -28.3222049 0.26272614 -27.50819397 0.24714661 C-24.98434183 0.20417979 -22.4616817 0.19542786 -19.9375 0.1875 C-18.23369191 0.16435967 -16.52991247 0.13899529 -14.82617188 0.11132812 C-9.88411749 0.03723349 -4.94265811 0 0 0 Z " fill="#55D8B9" transform="translate(62,56)"/>
<path d="M0 0 C0.84827362 0.00444122 1.69654724 0.00888245 2.57052612 0.01345825 C3.53137115 0.01360931 4.49221619 0.01376038 5.48217773 0.01391602 C6.52179657 0.02423859 7.56141541 0.03456116 8.63253784 0.04519653 C9.6951181 0.04802643 10.75769836 0.05085632 11.85247803 0.05377197 C15.25584033 0.06499264 18.6589422 0.09010066 22.06222534 0.11550903 C24.36560697 0.12553639 26.6689927 0.13466266 28.97238159 0.14285278 C34.6274188 0.1649381 40.28230347 0.19843415 45.93722534 0.24050903 C45.93722534 2.88050903 45.93722534 5.52050903 45.93722534 8.24050903 C44.28722534 8.24050903 42.63722534 8.24050903 40.93722534 8.24050903 C41.26722534 6.26050903 41.59722534 4.28050903 41.93722534 2.24050903 C41.27722534 2.24050903 40.61722534 2.24050903 39.93722534 2.24050903 C39.27722534 4.22050903 38.61722534 6.20050903 37.93722534 8.24050903 C25.72722534 8.24050903 13.51722534 8.24050903 0.93722534 8.24050903 C0.93722534 7.91050903 0.93722534 7.58050903 0.93722534 7.24050903 C12.81722534 7.24050903 24.69722534 7.24050903 36.93722534 7.24050903 C37.26722534 5.59050903 37.59722534 3.94050903 37.93722534 2.24050903 C24.07722534 2.24050903 10.21722534 2.24050903 -4.06277466 2.24050903 C-2.06277466 0.24050903 -2.06277466 0.24050903 0 0 Z " fill="#4DB39A" transform="translate(38.062774658203125,13.759490966796875)"/>
<path d="M0 0 C8.25 0 16.5 0 25 0 C25.33 0.99 25.66 1.98 26 3 C18.08 2.67 10.16 2.34 2 2 C2 3.32 2 4.64 2 6 C3.91425781 5.96519531 3.91425781 5.96519531 5.8671875 5.9296875 C7.5364525 5.91093171 9.2057238 5.89273131 10.875 5.875 C11.71675781 5.85824219 12.55851562 5.84148438 13.42578125 5.82421875 C14.23144531 5.81777344 15.03710938 5.81132813 15.8671875 5.8046875 C16.61081543 5.79421387 17.35444336 5.78374023 18.12060547 5.77294922 C20 6 20 6 22 8 C19.54749907 9.22625047 18.15689565 9.03425355 15.4296875 8.87890625 C14.08583984 8.80639648 14.08583984 8.80639648 12.71484375 8.73242188 C11.77769531 8.67634766 10.84054688 8.62027344 9.875 8.5625 C8.93011719 8.51029297 7.98523437 8.45808594 7.01171875 8.40429688 C4.6741581 8.27443239 2.33700455 8.1394613 0 8 C0 5.36 0 2.72 0 0 Z " fill="#4CB79D" transform="translate(44,31)"/>
<path d="M0 0 C1.65 0 3.3 0 5 0 C4.979375 0.78375 4.95875 1.5675 4.9375 2.375 C4.81315937 4.98114961 4.81315937 4.98114961 6 7 C19.86 7 33.72 7 48 7 C48 7.33 48 7.66 48 8 C32.16 8 16.32 8 0 8 C0 5.36 0 2.72 0 0 Z " fill="#53BEA6" transform="translate(16,57)"/>
<path d="M0 0 C6.27 0 12.54 0 19 0 C19 2.31 19 4.62 19 7 C10.75 7 2.5 7 -6 7 C-6.33 6.34 -6.66 5.68 -7 5 C0.92 5 8.84 5 17 5 C17 3.68 17 2.36 17 1 C11.39 1 5.78 1 0 1 C0 0.67 0 0.34 0 0 Z " fill="#57CEAF" transform="translate(37,41)"/>
<path d="M0 0 C-0.25 1.75 -0.25 1.75 -1 4 C-1.6703125 4.495 -2.340625 4.99 -3.03125 5.5 C-6.12548786 9.42919093 -5.42634609 13.40726501 -5.25 18.25 C-5.23195313 19.18585937 -5.21390625 20.12171875 -5.1953125 21.0859375 C-5.14825673 23.39167015 -5.08253713 25.69530945 -5 28 C-5.99 27.34 -6.98 26.68 -8 26 C-8.30548557 23.16078117 -8.4178985 20.58606776 -8.375 17.75 C-8.38660156 16.99847656 -8.39820312 16.24695313 -8.41015625 15.47265625 C-8.38024019 9.75868889 -7.18224321 5.61869185 -3.4375 1.125 C-2 0 -2 0 0 0 Z " fill="#54CBAE" transform="translate(34,16)"/>
<path d="M0 0 C0.33 0 0.66 0 1 0 C1 2.64 1 5.28 1 8 C5.29 8 9.58 8 14 8 C14 10.97 14 13.94 14 17 C13.67 17 13.34 17 13 17 C13 14.69 13 12.38 13 10 C6.73 10 0.46 10 -6 10 C-6.33 9.34 -6.66 8.68 -7 8 C-4.69 8 -2.38 8 0 8 C0 5.36 0 2.72 0 0 Z " fill="#0E3025" transform="translate(43,31)"/>
<path d="M0 0 C0.99 0 1.98 0 3 0 C3 2.31 3 4.62 3 7 C1.68 7 0.36 7 -1 7 C-0.67 4.69 -0.34 2.38 0 0 Z " fill="#5CE1C1" transform="translate(80,15)"/>
</svg>
